<?xml version="1.0" standalone="no"?>
<!DOCTYPE svg PUBLIC "-//W3C//DTD SVG 20010904//EN"
 "http://www.w3.org/TR/2001/REC-SVG-20010904/DTD/svg10.dtd">
<svg version="1.0" xmlns="http://www.w3.org/2000/svg"
 width="700.000000pt" height="700.000000pt" viewBox="0 0 700.000000 700.000000"
 preserveAspectRatio="xMidYMid meet">
<metadata>
Created by potrace 1.11, written by Peter Selinger 2001-2013
</metadata>
<g transform="translate(0.000000,700.000000) scale(0.100000,-0.100000)"
fill="#000000" stroke="none">
<path d="M6649 6754 l-247 -246 -67 0 c-181 0 -575 -156 -1005 -397 -63 -35
-127 -71 -141 -80 -15 -9 -55 -33 -90 -54 -78 -46 -100 -60 -113 -70 -6 -4
-74 -49 -151 -99 -77 -51 -142 -95 -145 -98 -3 -3 -27 -21 -55 -40 -116 -78
-366 -271 -520 -399 -98 -82 -104 -88 -245 -212 -94 -82 -473 -457 -581 -574
-70 -76 -293 -335 -339 -395 -19 -25 -40 -50 -46 -56 -6 -7 -57 -73 -114 -148
l-103 -136 -66 -1 c-36 0 -73 -2 -81 -3 -8 -2 -57 -6 -107 -10 -95 -6 -109 -8
-228 -25 -627 -94 -1239 -348 -1729 -719 -55 -42 -110 -84 -121 -93 -92 -77
-134 -115 -232 -207 -62 -59 -113 -112 -113 -118 0 -14 629 -644 642 -644 6 0
48 36 95 79 240 225 572 362 958 397 95 8 199 12 207 7 3 -2 -1 -21 -9 -43
l-16 -41 221 -220 222 -221 39 16 c22 8 42 12 44 8 5 -8 1 -119 -8 -212 -15
-156 -49 -322 -91 -436 -14 -38 -28 -78 -31 -89 -19 -64 -142 -276 -200 -346
-10 -11 -26 -30 -36 -42 -9 -12 -42 -47 -72 -77 l-55 -56 325 -327 325 -327
80 81 c44 44 106 110 137 147 32 37 66 76 76 87 11 11 58 72 106 135 265 351
456 716 590 1130 39 121 85 286 96 343 7 37 13 70 30 152 28 142 56 400 58
549 l1 69 56 41 c81 60 321 248 346 271 6 6 30 26 54 45 24 19 48 40 54 45 6
6 47 42 91 80 44 39 100 88 125 110 79 71 484 477 556 559 38 43 78 88 89 100
17 17 250 297 289 346 215 274 427 580 583 840 130 218 156 266 246 445 176
351 263 599 270 762 l2 63 248 248 c268 269 273 277 222 327 -50 51 -58 46
-326 -221z m-294 -443 c-42 -291 -311 -847 -678 -1396 -44 -66 -96 -142 -115
-170 -64 -89 -205 -280 -211 -285 -3 -3 -25 -30 -47 -60 -40 -54 -234 -289
-264 -320 -8 -9 -32 -36 -53 -60 -157 -183 -488 -515 -682 -685 -44 -38 -82
-73 -85 -76 -20 -24 -306 -255 -447 -361 l-173 -131 -1 -81 c-1 -224 -32 -481
-84 -716 -2 -8 -8 -37 -14 -65 -25 -111 -86 -307 -138 -445 -54 -142 -44 -121
-143 -325 -155 -317 -356 -611 -607 -883 l-42 -46 -220 219 c-121 121 -221
223 -221 227 0 4 6 13 13 20 7 7 38 46 70 87 140 185 263 465 302 691 3 19 10
54 15 76 5 23 12 73 16 110 3 38 8 87 10 109 7 71 4 338 -5 387 0 3 -42 -12
-92 -34 l-92 -40 -154 154 -155 155 27 64 c39 91 47 113 43 119 -4 6 -44 8
-198 10 -473 5 -904 -129 -1205 -374 -27 -23 -51 -44 -53 -48 -2 -5 -8 -8 -14
-8 -6 0 -110 100 -232 221 l-221 222 65 60 c74 67 247 211 300 247 19 13 37
27 40 30 11 14 243 163 344 220 94 54 217 116 346 173 108 48 316 123 435 157
64 18 267 68 300 74 17 2 39 7 50 9 19 5 147 24 212 33 18 2 48 6 65 8 58 8
211 19 303 21 50 2 93 4 97 4 4 1 35 40 70 88 317 440 817 982 1242 1348 32
28 68 58 80 69 11 10 75 62 141 115 603 487 1285 898 1785 1073 95 34 248 68
268 60 10 -4 12 -17 7 -51z"/>
<path d="M1449 2106 c-2 -2 -26 -7 -53 -10 -109 -15 -268 -86 -381 -171 -59
-44 -249 -224 -243 -230 2 -2 30 -6 63 -9 128 -13 162 -18 214 -30 l54 -12
-74 -44 c-41 -24 -75 -47 -77 -52 -2 -4 -10 -8 -17 -8 -7 0 -15 -3 -17 -7 -1
-5 -32 -30 -68 -58 -89 -68 -122 -98 -285 -259 -158 -156 -160 -148 32 -102
145 34 218 43 206 24 -4 -7 -41 -63 -82 -123 -108 -162 -326 -548 -364 -647
-15 -40 593 300 749 418 17 13 34 24 37 24 6 0 3 -38 -9 -104 -5 -35 -53 -244
-60 -265 -7 -21 12 -3 155 143 154 157 134 135 212 231 79 97 127 165 168 236
19 34 32 48 35 39 12 -32 25 -108 31 -175 4 -38 10 -87 14 -109 l6 -38 102
105 c107 111 188 221 231 316 15 31 27 58 27 61 1 3 8 28 17 55 62 188 37 393
-66 548 -80 120 -210 207 -361 242 -34 8 -190 16 -196 11z m263 -189 c250
-122 319 -408 167 -697 -45 -85 -89 -144 -89 -119 0 43 -143 389 -160 389 -3
0 -21 -51 -39 -112 -51 -171 -137 -323 -273 -486 l-28 -33 -1 43 c-1 45 -6 99
-13 133 -3 11 -5 28 -5 37 -1 13 -33 -6 -123 -73 -175 -131 -448 -310 -448
-294 0 18 199 317 302 454 43 58 75 108 71 112 -8 7 -139 23 -180 22 -41 -1
-34 7 72 88 135 103 255 165 415 214 52 16 99 32 103 35 10 9 -240 123 -321
147 -34 10 -62 21 -62 24 0 11 60 49 140 90 107 54 181 70 302 65 86 -4 105
-8 170 -39z"/>
</g>
</svg>
