<svg xmlns="http://www.w3.org/2000/svg" xmlns:xlink="http://www.w3.org/1999/xlink" viewBox="0 0 144.33 144.33">
  <defs>
    <symbol id="a" data-name="Raket" viewBox="0 0 144.33 144.33">
      <g>
        <path d="M36.06,125.24c15.09-15.08-1.88-32.06-17-17a22.86,22.86,0,0,1,7.71,2.14c-3.57,1.09-8.18,4-13.36,9.17a17.46,17.46,0,0,1,6.23-.3,94.41,94.41,0,0,0-9.06,14.45,94.48,94.48,0,0,0,14.44-9.07,17.52,17.52,0,0,1-.3,6.24c5.18-5.19,8.08-9.8,9.17-13.37A22.86,22.86,0,0,1,36.06,125.24Z" style="fill: none;stroke: #1d1d1b;stroke-miterlimit: 10;stroke-width: 3px"/>
        <path d="M75.75,88a173.38,173.38,0,0,0,21.12-18c25.78-25.78,38.19-55.16,35.36-58s-32.21,9.58-58,35.36a173.24,173.24,0,0,0-18,21.12A77.21,77.21,0,0,0,2.12,91.3l11.32,11.31c8.67-8.67,20.54-9.9,28.42-9.55-.44,1-.85,1.94-1.2,2.84l7.78,7.77c.89-.35,1.84-.75,2.83-1.19.35,7.88-.87,19.74-9.55,28.42L53,142.21A77.16,77.16,0,0,0,75.75,88Z" style="fill: none;stroke: #1d1d1b;stroke-miterlimit: 10;stroke-width: 3px"/>
        <path d="M132.23,12.1l10.6-10.6Z" style="fill: #e30613;stroke: #1d1d1b;stroke-linecap: round;stroke-linejoin: round;stroke-width: 3px"/>
      </g>
    </symbol>
  </defs>
  <title>raket</title>
  <use width="144.33" height="144.33" xlink:href="#a"/>
</svg>
